# xmcd
#
# Track frame offsets:
#  225
#  12494
#  22747
#  33124
#  51766
#  58019
#  71408
#  81096
#  90319
#  102650
#  117487
#  130810
#  143982
#  159922
#  170161
#  182204
#
# Disc length: 2556 seconds
#
# Revision: 1
# Processed by: cddbd v1.5.1PL0 Copyright (c) Steve Scherf et al.
# Submitted via: Collectorz.com Music Collector 6.9
#
DISCID=d309f910
DTITLE=Various Artist - Country Woman
DYEAR=1998
DGENRE=Country
TTITLE0=Anne Murray - All Time
TTITLE1=Loretta Lynn - You're Looking At Country
TTITLE2=Wanda Jackson - It's Only Make Believe
TTITLE3=Tina Turner - Lovin' Him Was Easier
TTITLE4=Brenda Lee - I'll Fly Away
TTITLE5=Billie Jo Spears - Fever
TTITLE6=Barbara Mandrell - Release Me
TTITLE7=Loretta Lynn - Your Squaw Is On Warpath
TTITLE8=Patsy Cline - A Poor Man's Roses
TTITLE9=Tina Turner - Good Hearted Woman
TTITLE10=Lynn Anderson - Rose Garden
TTITLE11=Dottie West - Divorce
TTITLE12=Brenda Lee - Johnny One Time
TTITLE13=Anne Murray - Some Birds
TTITLE14=Billie Jo Spears - Misty Blue
TTITLE15=Lynn Anderson - Snowbird
EXTD=
EXTT0=
EXTT1=
EXTT2=
EXTT3=
EXTT4=
EXTT5=
EXTT6=
EXTT7=
EXTT8=
EXTT9=
EXTT10=
EXTT11=
EXTT12=
EXTT13=
EXTT14=
EXTT15=
PLAYORDER=
